M48
; DRILL file {KiCad 9.0.0-rc3} date 2025-02-18T21:04:33+0900
; FORMAT={-:-/ absolute / metric / decimal}
; #@! TF.CreationDate,2025-02-18T21:04:33+09:00
; #@! TF.GenerationSoftware,Kicad,Pcbnew,9.0.0-rc3
; #@! TF.FileFunction,Plated,1,2,PTH
FMAT,2
METRIC
; #@! TA.AperFunction,Plated,PTH,ViaDrill
T1C0.300
; #@! TA.AperFunction,Plated,PTH,ViaDrill
T2C0.400
; #@! TA.AperFunction,Plated,PTH,ComponentDrill
T3C0.800
; #@! TA.AperFunction,Plated,PTH,ComponentDrill
T4C0.900
; #@! TA.AperFunction,Plated,PTH,ComponentDrill
T5C0.920
; #@! TA.AperFunction,Plated,PTH,ComponentDrill
T6C0.950
; #@! TA.AperFunction,Plated,PTH,ComponentDrill
T7C1.000
; #@! TA.AperFunction,Plated,PTH,ComponentDrill
T8C1.100
; #@! TA.AperFunction,Plated,PTH,ComponentDrill
T9C1.200
; #@! TA.AperFunction,Plated,PTH,ViaDrill
T10C1.500
; #@! TA.AperFunction,Plated,PTH,ComponentDrill
T11C1.500
; #@! TA.AperFunction,Plated,PTH,ComponentDrill
T12C2.300
%
G90
G05
T1
X75.7Y-84.8
X80.7Y-72.8
X84.7Y-74.8
X141.7Y-61.3
X141.7Y-62.3
X141.7Y-63.3
X141.7Y-64.3
X142.7Y-61.3
X142.7Y-62.3
X142.7Y-63.3
X142.7Y-64.3
X143.7Y-61.3
X143.7Y-62.3
X143.7Y-63.3
X143.7Y-64.3
X144.7Y-61.3
X144.7Y-62.3
X144.7Y-63.3
X144.7Y-64.3
X145.7Y-61.3
X145.7Y-62.3
X145.7Y-63.3
X145.7Y-64.3
X146.7Y-61.3
X146.7Y-62.3
X146.7Y-63.3
X146.7Y-64.3
X147.7Y-61.3
X147.7Y-62.3
X147.7Y-63.3
X147.7Y-64.3
X148.7Y-61.3
X148.7Y-62.3
X148.7Y-63.3
X148.7Y-64.3
X149.7Y-61.3
X149.7Y-62.3
X149.7Y-63.3
X149.7Y-64.3
X150.7Y-61.3
X150.7Y-62.3
X150.7Y-63.3
X150.7Y-64.3
X158.4Y-75.3
X158.6Y-77.5
X164.7Y-85.3
X164.7Y-87.3
X164.7Y-89.3
X164.7Y-91.3
X165.2Y-84.3
X165.2Y-86.3
X165.2Y-88.3
X165.2Y-90.3
X165.7Y-85.3
X165.7Y-87.3
X165.7Y-89.3
X165.7Y-91.3
X166.2Y-84.3
X166.2Y-86.3
X166.2Y-88.3
X166.2Y-90.3
X166.7Y-85.3
X166.7Y-87.3
X166.7Y-89.3
X166.7Y-91.3
X167.2Y-84.3
X167.2Y-86.3
X167.2Y-88.3
X167.2Y-90.3
X167.7Y-85.3
X167.7Y-87.3
X167.7Y-89.3
X167.7Y-91.3
X168.2Y-84.3
X168.2Y-86.3
X168.2Y-88.3
X168.2Y-90.3
X168.7Y-85.3
X168.7Y-87.3
X168.7Y-89.3
X168.7Y-91.3
X169.2Y-84.3
X169.2Y-86.3
X169.2Y-88.3
X169.2Y-90.3
X169.7Y-85.3
X169.7Y-87.3
X169.7Y-89.3
X169.7Y-91.3
X170.2Y-84.3
X170.2Y-86.3
X170.2Y-88.3
X170.2Y-90.3
X170.7Y-85.3
X170.7Y-87.3
X170.7Y-89.3
X170.7Y-91.3
X171.2Y-84.3
X171.2Y-86.3
X171.2Y-88.3
X171.2Y-90.3
X171.7Y-85.3
X171.7Y-87.3
X171.7Y-89.3
X171.7Y-91.3
X172.2Y-84.3
X172.2Y-86.3
X172.2Y-88.3
X172.2Y-90.3
X172.7Y-85.3
X172.7Y-87.3
X172.7Y-89.3
X172.7Y-91.3
X173.2Y-86.3
X173.2Y-88.3
X173.2Y-90.3
X173.7Y-87.3
X173.7Y-89.3
X173.7Y-91.3
T2
X90.7Y-62.8
X90.7Y-65.3
X90.7Y-67.8
X90.7Y-70.3
X90.7Y-72.8
X90.7Y-75.3
X90.7Y-77.8
X90.7Y-80.3
X90.7Y-82.8
X90.7Y-85.3
X90.7Y-97.8
X90.7Y-100.3
X90.7Y-102.8
X90.7Y-105.3
X90.7Y-107.8
X90.7Y-110.3
X90.7Y-112.8
X90.7Y-115.3
X90.7Y-117.8
X90.7Y-120.3
X90.7Y-122.8
X90.7Y-125.3
X90.7Y-127.8
X91.2Y-94.8
X93.7Y-71.8
X93.7Y-79.8
X94.7Y-62.3
X95.7Y-58.3
X96.7Y-67.3
X97.2Y-97.3
X97.2Y-100.3
X97.2Y-103.8
X97.2Y-106.8
X97.2Y-133.3
X97.7Y-75.8
X97.7Y-83.3
X97.7Y-110.3
X98.2Y-58.3
X98.2Y-129.8
X98.7Y-119.3
X99.7Y-112.3
X99.7Y-133.3
X100.2Y-71.3
X100.7Y-58.3
X101.7Y-65.3
X102.2Y-133.3
X102.7Y-85.8
X102.7Y-94.3
X102.7Y-98.8
X103.2Y-58.3
X103.7Y-114.3
X104.2Y-103.8
X104.7Y-69.8
X104.7Y-133.3
X105.2Y-108.3
X105.7Y-58.3
X106.2Y-65.3
X106.2Y-129.3
X107.2Y-133.3
X107.7Y-114.3
X108.2Y-58.3
X109.2Y-82.5
X109.2Y-84.5
X109.7Y-133.3
X110.7Y-58.3
X112.2Y-133.3
X112.7Y-129.3
X113.2Y-58.3
X114.2Y-109.8
X114.7Y-133.3
X115.7Y-58.3
X117.2Y-133.3
X117.7Y-78.43
X118.2Y-58.3
X118.2Y-105.8
X118.2Y-110.3
X118.9Y-82.1
X119.2Y-63.3
X119.7Y-60.8
X119.7Y-133.3
X120.7Y-58.3
X122.2Y-133.3
X122.5Y-89.8
X122.7Y-126.8
X123.2Y-58.3
X123.2Y-100.3
X123.2Y-105.3
X123.45Y-77.55
X124.7Y-133.3
X125.7Y-58.3
X125.7Y-83.0
X127.2Y-133.3
X127.7Y-63.8
X128.2Y-58.3
X128.2Y-99.3
X128.85Y-113.45
X129.7Y-133.3
X130.7Y-58.3
X130.7Y-77.8
X131.7Y-116.3
X132.2Y-71.8
X132.2Y-133.3
X132.3Y-110.8
X132.5Y-87.2
X132.7Y-100.2
X133.2Y-58.3
X134.7Y-133.3
X135.7Y-58.3
X137.2Y-133.3
X138.2Y-58.3
X139.7Y-133.3
X140.7Y-58.3
X141.2Y-93.3
X141.2Y-102.8
X141.7Y-108.3
X141.7Y-117.8
X142.2Y-133.3
X143.2Y-58.3
X144.7Y-133.3
X145.7Y-58.3
X146.2Y-86.8
X147.2Y-133.3
X147.7Y-92.8
X148.2Y-58.3
X149.7Y-106.8
X149.7Y-133.3
X150.2Y-78.3
X150.2Y-117.8
X150.7Y-58.3
X152.2Y-87.3
X152.2Y-133.3
X153.2Y-58.3
X154.7Y-133.3
X155.7Y-58.3
X157.2Y-133.3
X158.2Y-58.3
X158.2Y-95.8
X158.7Y-90.8
X159.2Y-112.8
X159.3Y-68.2
X159.5Y-81.8
X159.7Y-85.3
X159.7Y-108.8
X159.7Y-133.3
X160.7Y-58.3
X160.7Y-102.0
X162.2Y-112.3
X162.2Y-133.3
X162.6Y-98.3
X162.7Y-64.8
X163.2Y-58.3
X163.3Y-94.4
X163.7Y-115.8
X164.7Y-67.3
X164.7Y-133.3
X165.7Y-58.3
X166.2Y-61.8
X166.7Y-72.3
X167.2Y-65.8
X167.2Y-112.3
X167.2Y-133.3
X167.7Y-105.8
X167.7Y-109.3
X167.7Y-115.8
X168.2Y-58.3
X169.7Y-133.3
X170.7Y-58.3
X170.7Y-70.8
X171.3Y-75.4
X172.2Y-133.3
X173.2Y-58.3
X173.2Y-66.3
X173.2Y-107.3
X173.7Y-116.8
X174.7Y-72.3
X174.7Y-133.3
X175.2Y-107.3
X175.7Y-58.3
X175.7Y-67.3
X176.1Y-77.6
X177.1Y-87.4
X177.2Y-73.8
X177.2Y-133.3
X177.7Y-78.3
X177.7Y-79.8
X177.7Y-81.3
X178.2Y-58.3
X178.2Y-83.3
X178.7Y-84.3
X178.7Y-116.3
X179.2Y-83.3
X179.2Y-85.3
X179.7Y-84.3
X179.7Y-98.3
X179.7Y-133.3
X180.2Y-63.3
X180.2Y-83.3
X180.2Y-85.3
X180.7Y-58.3
X180.7Y-68.3
X180.7Y-70.8
X180.7Y-75.3
X180.7Y-84.3
X180.7Y-107.3
X181.2Y-83.3
X181.2Y-85.3
X181.7Y-61.3
X181.7Y-65.3
X181.7Y-75.3
X181.7Y-84.3
X182.2Y-83.3
X182.2Y-85.3
X182.2Y-133.3
X182.7Y-75.3
X182.7Y-84.3
X182.7Y-107.3
X183.1Y-74.2
X183.2Y-58.3
X183.2Y-63.3
X183.2Y-83.3
X184.2Y-98.3
X184.2Y-112.8
X184.5Y-110.4
X184.7Y-61.3
X184.7Y-65.3
X184.7Y-133.3
X185.2Y-104.8
X185.2Y-117.8
X185.7Y-58.3
X186.2Y-63.3
X186.7Y-108.3
X187.2Y-133.3
X187.7Y-61.3
X187.7Y-65.3
X188.2Y-58.3
X188.2Y-98.8
X188.7Y-104.8
X189.2Y-63.3
X189.7Y-133.3
X190.7Y-58.3
X190.7Y-61.3
X190.7Y-65.3
X190.7Y-108.3
X190.7Y-117.8
X192.2Y-63.3
X192.2Y-133.3
X193.2Y-58.3
X193.7Y-61.3
X193.7Y-94.8
X194.7Y-133.3
X195.7Y-58.3
X195.7Y-82.8
X196.2Y-123.3
X196.2Y-125.8
X197.2Y-133.3
X198.2Y-58.3
X198.7Y-93.8
X198.7Y-96.8
X199.7Y-123.3
X199.7Y-125.8
X199.7Y-133.3
X200.7Y-58.3
X201.7Y-85.3
X202.2Y-133.3
X202.7Y-109.8
X203.2Y-58.3
X203.7Y-113.8
X203.7Y-117.8
X204.7Y-133.3
X205.7Y-58.3
X206.2Y-116.3
X207.2Y-133.3
X207.7Y-73.3
X207.7Y-77.3
X208.2Y-58.3
X210.2Y-75.8
X210.7Y-80.3
X213.2Y-62.3
X213.2Y-64.8
X213.2Y-67.3
X213.2Y-69.8
X213.2Y-72.3
X213.2Y-74.8
X213.2Y-77.3
X213.2Y-79.8
X213.2Y-82.3
X213.2Y-84.8
X213.2Y-87.3
X213.2Y-89.8
X213.2Y-92.3
X213.2Y-94.8
X213.2Y-97.3
X213.2Y-99.8
X213.2Y-102.3
X213.2Y-104.8
X213.2Y-107.3
X213.2Y-109.8
X213.2Y-112.3
X213.2Y-114.8
X213.2Y-117.3
X213.2Y-119.8
X213.2Y-122.3
X213.2Y-124.8
X213.2Y-127.3
T3
X74.88Y-101.585
X74.88Y-104.125
X74.98Y-80.36
X74.98Y-82.9
X82.5Y-101.585
X82.5Y-104.125
X82.6Y-80.36
X82.6Y-82.9
T4
X107.4Y-75.89
X107.4Y-78.43
X107.4Y-80.97
X107.4Y-83.51
X107.4Y-86.05
X107.4Y-88.59
X107.4Y-91.13
X107.4Y-93.67
X107.4Y-96.21
X107.4Y-98.75
X107.4Y-101.29
X107.4Y-103.83
X107.4Y-106.37
X107.4Y-108.91
X188.4Y-88.59
X188.4Y-91.13
X188.4Y-93.67
X188.4Y-96.21
T5
X175.1Y-120.703
X177.6Y-120.703
X179.6Y-120.703
X182.1Y-120.703
X194.2Y-120.703
X196.7Y-120.703
X198.7Y-120.703
X201.2Y-120.703
T6
X83.425Y-88.175
X83.425Y-90.675
X83.425Y-93.175
X83.425Y-95.675
X95.725Y-88.08
X95.725Y-90.58
X95.725Y-93.08
X95.725Y-95.58
X109.75Y-61.705
X112.25Y-61.705
X114.75Y-61.705
X117.25Y-61.705
X124.55Y-61.705
X127.05Y-61.705
X129.55Y-61.705
X132.05Y-61.705
X158.4Y-61.73
X160.9Y-61.73
X163.4Y-61.73
X170.6Y-61.73
X173.1Y-61.73
X175.6Y-61.73
T7
X146.484Y-99.225
X149.024Y-99.225
X151.564Y-99.225
X193.828Y-76.8
X194.5Y-78.8
X195.011Y-87.8
X195.683Y-89.8
X196.3Y-99.63
X196.3Y-102.13
X196.3Y-108.055
X196.3Y-110.555
X199.5Y-78.8
X200.172Y-80.8
X200.683Y-89.8
X201.355Y-91.8
X204.745Y-82.3
X205.417Y-84.3
X205.575Y-99.63
X205.575Y-102.13
X205.575Y-108.03
X205.575Y-110.53
X210.417Y-84.3
X211.089Y-86.3
T8
X93.45Y-122.15
X93.45Y-126.65
X99.95Y-122.15
X99.95Y-126.65
X103.25Y-122.15
X103.25Y-126.65
X109.75Y-122.15
X109.75Y-126.65
X113.25Y-122.15
X113.25Y-126.65
X119.75Y-122.15
X119.75Y-126.65
T10
X204.8Y-91.3
X204.8Y-93.7
X205.0Y-91.3
X205.0Y-93.7
X205.2Y-63.3
X205.2Y-63.5
X205.2Y-63.7
X205.2Y-63.9
X205.2Y-64.1
X205.2Y-64.3
X205.2Y-64.5
X205.2Y-64.7
X205.2Y-64.9
X205.2Y-65.1
X205.2Y-65.3
X205.2Y-65.5
X205.2Y-65.7
X205.2Y-65.9
X205.2Y-66.1
X205.2Y-66.3
X205.2Y-66.5
X205.2Y-66.7
X205.2Y-66.9
X205.2Y-67.1
X205.2Y-67.3
X205.2Y-67.5
X205.2Y-67.7
X205.2Y-67.9
X205.2Y-68.1
X205.2Y-68.3
X205.2Y-68.5
X205.2Y-68.7
X205.2Y-68.9
X205.2Y-69.1
X205.2Y-69.3
X205.2Y-69.5
X205.2Y-69.7
X205.2Y-69.9
X205.2Y-70.1
X205.2Y-70.3
X205.2Y-91.3
X205.2Y-93.7
X205.4Y-91.3
X205.4Y-93.7
X205.6Y-91.3
X205.6Y-93.7
X205.8Y-91.3
X205.8Y-93.7
X206.0Y-91.3
X206.0Y-93.7
X206.2Y-91.3
X206.2Y-93.7
X206.4Y-91.3
X206.4Y-93.7
X206.6Y-91.3
X206.6Y-93.7
X206.8Y-91.3
X206.8Y-93.7
X207.0Y-91.3
X207.0Y-93.7
X207.2Y-91.3
X207.2Y-93.7
X207.4Y-91.3
X207.4Y-93.7
X207.6Y-91.3
X207.6Y-93.7
X207.8Y-63.3
X207.8Y-63.5
X207.8Y-63.7
X207.8Y-63.9
X207.8Y-64.1
X207.8Y-64.3
X207.8Y-64.5
X207.8Y-64.7
X207.8Y-64.9
X207.8Y-65.1
X207.8Y-65.3
X207.8Y-65.5
X207.8Y-65.7
X207.8Y-65.9
X207.8Y-66.1
X207.8Y-66.3
X207.8Y-66.5
X207.8Y-66.7
X207.8Y-66.9
X207.8Y-67.1
X207.8Y-67.3
X207.8Y-67.5
X207.8Y-67.7
X207.8Y-67.9
X207.8Y-68.1
X207.8Y-68.3
X207.8Y-68.5
X207.8Y-68.7
X207.8Y-68.9
X207.8Y-69.1
X207.8Y-69.3
X207.8Y-69.5
X207.8Y-69.7
X207.8Y-69.9
X207.8Y-70.1
X207.8Y-70.3
X207.8Y-91.3
X207.8Y-93.7
X208.0Y-91.3
X208.0Y-93.7
X208.2Y-91.3
X208.2Y-93.7
X208.4Y-91.3
X208.4Y-93.7
X208.6Y-91.3
X208.6Y-93.7
X208.8Y-91.3
X208.8Y-93.7
X209.0Y-91.3
X209.0Y-93.7
X209.2Y-91.3
X209.2Y-93.7
X209.4Y-91.3
X209.4Y-93.7
X209.6Y-91.3
X209.6Y-93.7
X209.8Y-91.3
X209.8Y-93.7
X210.0Y-91.3
X210.0Y-93.7
X210.2Y-91.3
X210.2Y-93.7
X210.4Y-63.3
X210.4Y-63.5
X210.4Y-63.7
X210.4Y-63.9
X210.4Y-64.1
X210.4Y-64.3
X210.4Y-64.5
X210.4Y-64.7
X210.4Y-64.9
X210.4Y-65.1
X210.4Y-65.3
X210.4Y-65.5
X210.4Y-65.7
X210.4Y-65.9
X210.4Y-66.1
X210.4Y-66.3
X210.4Y-66.5
X210.4Y-66.7
X210.4Y-66.9
X210.4Y-67.1
X210.4Y-67.3
X210.4Y-67.5
X210.4Y-67.7
X210.4Y-67.9
X210.4Y-68.1
X210.4Y-68.3
X210.4Y-68.5
X210.4Y-68.7
X210.4Y-68.9
X210.4Y-69.1
X210.4Y-69.3
X210.4Y-69.5
X210.4Y-69.7
X210.4Y-69.9
X210.4Y-70.1
X210.4Y-70.3
X210.4Y-91.3
X210.4Y-93.7
X210.6Y-91.3
X210.6Y-93.7
X210.8Y-91.3
X210.8Y-93.7
X211.0Y-91.3
X211.0Y-93.7
X211.2Y-91.3
X211.2Y-93.7
X211.4Y-91.3
X211.4Y-93.7
T11
X52.65Y-114.8
X55.3Y-69.725
X55.3Y-81.725
X55.3Y-91.725
X55.3Y-103.725
X67.5Y-69.725
X67.5Y-81.725
X67.5Y-91.725
X67.5Y-103.725
X69.5Y-75.725
X69.5Y-97.725
X74.45Y-114.8
T12
X172.03Y-123.412
X185.17Y-123.412
X191.13Y-123.412
X204.27Y-123.412
T7
G00X194.5Y-67.2
M15
G01X194.5Y-69.2
M16
G05
G00X200.2Y-65.2
M15
G01X198.2Y-65.2
M16
G05
G00X200.2Y-71.2
M15
G01X198.2Y-71.2
M16
G05
T9
G00X40.7Y-77.65
M15
G01X40.7Y-75.85
M16
G05
G00X40.7Y-85.27
M15
G01X40.7Y-83.47
M16
G05
G00X40.7Y-92.89
M15
G01X40.7Y-91.09
M16
G05
G00X40.7Y-100.51
M15
G01X40.7Y-98.71
M16
G05
G00X40.7Y-108.13
M15
G01X40.7Y-106.33
M16
G05
G00X40.7Y-115.75
M15
G01X40.7Y-113.95
M16
G05
M30
